<svg width="120" height="49" viewBox="0 0 120 49" fill="none" xmlns="http://www.w3.org/2000/svg">
<rect y="5" width="120" height="40" fill="#A9845C"/>
<g filter="url(#filter0_d_28_889)">
<path d="M37.2928 29H35.2258L31.9758 24.736V29H30.1818V19.9H31.9758V23.917L35.0958 19.9H37.1628L33.7958 24.32L37.2928 29ZM45.0383 29L44.4923 27.362H40.8653L40.3193 29H38.3823L41.5673 19.9H43.7903L46.9883 29H45.0383ZM41.4373 25.685H43.9333L42.6853 21.967L41.4373 25.685ZM54.0108 19.9V21.616H51.5538V29H49.7598V21.616H47.3158V19.9H54.0108ZM60.9821 29L60.4361 27.362H56.8091L56.2631 29H54.3261L57.5111 19.9H59.7341L62.9321 29H60.9821ZM57.3811 25.685H59.8771L58.6291 21.967L57.3811 25.685ZM63.9953 29V27.336C64.5326 27.414 64.9356 27.3057 65.2043 27.011C65.4729 26.7163 65.6073 26.14 65.6073 25.282V19.9H71.7953V29H70.0143V21.616H67.3883V25.23C67.3883 26.0187 67.2929 26.6817 67.1023 27.219C66.9116 27.7563 66.6473 28.155 66.3093 28.415C65.9799 28.675 65.6246 28.8483 65.2433 28.935C64.8706 29.0217 64.4546 29.0433 63.9953 29ZM81.9194 27.817C81.0008 28.727 79.8828 29.182 78.5654 29.182C77.2481 29.182 76.1301 28.727 75.2114 27.817C74.3014 26.8983 73.8464 25.776 73.8464 24.45C73.8464 23.124 74.3014 22.006 75.2114 21.096C76.1301 20.1773 77.2481 19.718 78.5654 19.718C79.8828 19.718 81.0008 20.1773 81.9194 21.096C82.8381 22.006 83.2974 23.124 83.2974 24.45C83.2974 25.776 82.8381 26.8983 81.9194 27.817ZM76.4724 26.595C77.0358 27.1497 77.7334 27.427 78.5654 27.427C79.3974 27.427 80.0951 27.1497 80.6584 26.595C81.2218 26.0317 81.5034 25.3167 81.5034 24.45C81.5034 23.5833 81.2218 22.8683 80.6584 22.305C80.0951 21.7417 79.3974 21.46 78.5654 21.46C77.7334 21.46 77.0358 21.7417 76.4724 22.305C75.9091 22.8683 75.6274 23.5833 75.6274 24.45C75.6274 25.3167 75.9091 26.0317 76.4724 26.595ZM90.5123 19.9V21.616H87.1323V29H85.3383V19.9H90.5123Z" fill="white"/>
</g>
<rect x="0.5" y="5.5" width="119" height="39" stroke="white"/>
<path d="M82 47.0407L81.9798 48.1157C77.3747 47.9513 72.7709 47.7944 68.1757 47.6282L67.6576 47.6104L66.486 48.0241C65.952 48.2152 65.5536 48.3567 65.5057 48.3701L43.8076 49L38.0626 48.0432L17 48.0184C17.0048 47.8665 17.0046 47.7187 17.0024 47.5712L17.0022 47.4234L17.001 47.1153L40.6899 47.0008C40.6968 46.9995 40.7047 47.0013 40.7116 47L45.2956 47.1997L82 47.0407Z" fill="#A9845C"/>
<g clip-path="url(#clip0_28_889)">
<path d="M105.39 0.895803C78.3902 3.30944 51.1674 1.2515 24 1.85688C51.8561 2.34629 79.7415 4.03803 109 2.07026L108.757 0C107.606 0.0218899 106.504 0.270211 105.39 0.895803Z" fill="#A9845C"/>
</g>
<defs>
<filter id="filter0_d_28_889" x="30.1816" y="19.7178" width="62.3311" height="11.4644" filterUnits="userSpaceOnUse" color-interpolation-filters="sRGB">
<feFlood flood-opacity="0" result="BackgroundImageFix"/>
<feColorMatrix in="SourceAlpha" type="matrix" values="0 0 0 0 0 0 0 0 0 0 0 0 0 0 0 0 0 0 127 0" result="hardAlpha"/>
<feOffset dx="1" dy="1"/>
<feGaussianBlur stdDeviation="0.5"/>
<feComposite in2="hardAlpha" operator="out"/>
<feColorMatrix type="matrix" values="0 0 0 0 0 0 0 0 0 0 0 0 0 0 0 0 0 0 0.25 0"/>
<feBlend mode="normal" in2="BackgroundImageFix" result="effect1_dropShadow_28_889"/>
<feBlend mode="normal" in="SourceGraphic" in2="effect1_dropShadow_28_889" result="shape"/>
</filter>
<clipPath id="clip0_28_889">
<rect width="34" height="3" fill="white" transform="translate(75)"/>
</clipPath>
</defs>
</svg>
