<svg width="108" height="40" viewBox="0 0 108 40" fill="none" xmlns="http://www.w3.org/2000/svg">
<circle cx="88" cy="20" r="19.5" fill="#3B3937" stroke="#505050"/>
<path fill-rule="evenodd" clip-rule="evenodd" d="M78.233 19.2099C83.4824 16.701 86.9828 15.047 88.7343 14.2479C93.735 11.9662 94.7741 11.5699 95.4514 11.5568C95.6003 11.5539 95.9334 11.5944 96.1491 11.7864C96.3313 11.9486 96.3814 12.1676 96.4054 12.3214C96.4294 12.4751 96.4593 12.8253 96.4355 13.099C96.1645 16.2224 94.992 23.8022 94.3954 27.3005C94.143 28.7807 93.646 29.277 93.1648 29.3256C92.1191 29.4312 91.3251 28.5675 90.3123 27.8392C88.7274 26.6996 87.8321 25.9902 86.2937 24.8781C84.5159 23.5929 85.6684 22.8866 86.6815 21.7322C86.9467 21.4301 91.5541 16.8329 91.6432 16.4159C91.6544 16.3638 91.6647 16.1693 91.5595 16.0667C91.4542 15.964 91.2988 15.9991 91.1866 16.0271C91.0277 16.0666 88.4959 17.9023 83.5912 21.5342C82.8726 22.0755 82.2216 22.3393 81.6384 22.3254C80.9955 22.3102 79.7587 21.9267 78.8393 21.5988C77.7116 21.1967 76.8154 20.9841 76.8934 20.3012C76.9341 19.9455 77.3806 19.5817 78.233 19.2099Z" fill="white"/>
<circle cx="54" cy="20" r="19.5" fill="#3B3937" stroke="#505050"/>
<path d="M55.2684 10.8267C53.0529 10.5219 50.802 11.029 48.9312 12.2544C47.0604 13.4798 45.6962 15.3406 45.0904 17.4934C44.4846 19.6461 44.6782 21.9454 45.6354 23.9665C46.5926 25.9877 48.2487 27.5943 50.298 28.4896C50.2426 27.7783 50.2935 27.0628 50.4489 26.3665C50.6202 25.5896 51.6489 21.3081 51.6489 21.3081C51.4441 20.849 51.3417 20.3507 51.3489 19.848C51.3489 18.473 52.1425 17.447 53.1295 17.447C53.3068 17.4445 53.4826 17.4801 53.6449 17.5515C53.8073 17.6229 53.9523 17.7285 54.0702 17.8609C54.1881 17.9934 54.2761 18.1497 54.3282 18.3192C54.3803 18.4888 54.3952 18.6675 54.3721 18.8433C54.3721 19.6767 53.8369 20.9378 53.5573 22.1211C53.502 22.3381 53.4985 22.5651 53.547 22.7837C53.5956 23.0023 53.6948 23.2065 53.8367 23.3798C53.9786 23.553 54.1592 23.6905 54.364 23.7812C54.5687 23.8718 54.792 23.9131 55.0156 23.9017C56.773 23.9017 57.9508 21.6507 57.9508 18.9933C57.9508 16.9563 56.6017 15.4304 54.1147 15.4304C53.5197 15.4072 52.9261 15.5053 52.3702 15.7186C51.8142 15.9318 51.3074 16.2559 50.8805 16.671C50.4536 17.0861 50.1155 17.5837 49.8867 18.1335C49.658 18.6833 49.5434 19.2738 49.5499 19.8693C49.5234 20.5297 49.7364 21.1776 50.1499 21.6933C50.2271 21.751 50.2835 21.8322 50.3106 21.9247C50.3376 22.0173 50.3339 22.1161 50.2999 22.2063C50.2573 22.3767 50.1499 22.7831 50.1073 22.9322C50.0984 22.9828 50.0778 23.0305 50.0471 23.0717C50.0164 23.1128 49.9765 23.1462 49.9305 23.169C49.8846 23.1919 49.8339 23.2037 49.7826 23.2034C49.7313 23.2031 49.6807 23.1908 49.6351 23.1674C48.3536 22.6544 47.7499 21.2443 47.7499 19.6341C47.7499 16.998 49.9573 13.8424 54.3739 13.8424C57.8888 13.8424 60.2258 16.4137 60.2258 19.1637C60.2258 22.7831 58.2101 25.5044 55.2314 25.5044C54.7862 25.5187 54.3446 25.4204 53.9474 25.2188C53.5502 25.0171 53.2103 24.7186 52.9591 24.3507C52.9591 24.3507 52.4239 26.4952 52.3184 26.9007C52.1029 27.6014 51.785 28.2663 51.3749 28.8739C52.2295 29.1331 53.1175 29.2628 54.0101 29.2591C55.2263 29.26 56.4309 29.0211 57.5547 28.5559C58.6785 28.0907 59.6995 27.4084 60.5592 26.5481C61.4189 25.6877 62.1005 24.6663 62.5649 23.5421C63.0293 22.418 63.2674 21.2133 63.2656 19.997C63.2645 17.7609 62.4543 15.6007 60.9847 13.9153C59.5151 12.23 57.4854 11.1332 55.2702 10.8276L55.2684 10.8267Z" fill="white"/>
<circle cx="20" cy="20" r="19.5" fill="#3B3937" stroke="#505050"/>
<g clip-path="url(#clip0_28_639)">
<path d="M28.5856 15.6711C28.7122 15.2763 28.5856 15 27.9947 15H26.0251C25.5186 15 25.2935 15.25 25.1669 15.5263C25.1669 15.5263 24.1681 17.8158 22.7472 19.2895C22.2829 19.7237 22.0859 19.8553 21.8327 19.8553C21.7061 19.8553 21.5232 19.7237 21.5232 19.3289V15.6711C21.5232 15.1974 21.3825 15 20.9605 15H17.8654C17.5559 15 17.3589 15.2237 17.3589 15.4211C17.3589 15.8684 18.0624 15.9737 18.1468 17.2105V19.921C18.1468 20.5132 18.0342 20.6184 17.781 20.6184C17.1198 20.6184 15.4878 18.3289 14.5312 15.6974C14.3342 15.2105 14.1513 15 13.6449 15H11.6753C11.1125 15 11 15.25 11 15.5263C11 16.0132 11.6612 18.4342 14.1091 21.6316C15.7411 23.8158 18.0342 25 20.1164 25C21.3685 25 21.5232 24.7368 21.5232 24.2895V22.6316C21.5232 22.1053 21.6358 22 22.0437 22C22.3392 22 22.8316 22.1316 23.9993 23.1842C25.3358 24.4342 25.5608 25 26.3065 25H28.2761C28.8388 25 29.1202 24.7368 28.9513 24.2237C28.7685 23.7105 28.1354 22.9605 27.2913 22.0658C26.827 21.5526 26.1377 21.0132 25.9407 20.7368C25.6453 20.3816 25.7297 20.2237 25.9407 19.921C25.9407 19.9079 28.3464 16.75 28.5856 15.6711Z" fill="white" stroke="white" stroke-width="0.5"/>
</g>
<defs>
<clipPath id="clip0_28_639">
<rect width="22" height="22" fill="white" transform="translate(9 9)"/>
</clipPath>
</defs>
</svg>
