<svg width="150" height="55" viewBox="0 0 150 55" fill="none" xmlns="http://www.w3.org/2000/svg">
<rect width="150" height="50" fill="#A9845C"/>
<g filter="url(#filter0_d_114_5055)">
<path d="M36.6702 19.5V30H34.6002V21.48H30.8952V30H28.8252V19.5H36.6702ZM48.36 28.635C47.3 29.685 46.01 30.21 44.49 30.21C42.97 30.21 41.68 29.685 40.62 28.635C39.57 27.575 39.045 26.28 39.045 24.75C39.045 23.22 39.57 21.93 40.62 20.88C41.68 19.82 42.97 19.29 44.49 19.29C46.01 19.29 47.3 19.82 48.36 20.88C49.42 21.93 49.95 23.22 49.95 24.75C49.95 26.28 49.42 27.575 48.36 28.635ZM42.075 27.225C42.725 27.865 43.53 28.185 44.49 28.185C45.45 28.185 46.255 27.865 46.905 27.225C47.555 26.575 47.88 25.75 47.88 24.75C47.88 23.75 47.555 22.925 46.905 22.275C46.255 21.625 45.45 21.3 44.49 21.3C43.53 21.3 42.725 21.625 42.075 22.275C41.425 22.925 41.1 23.75 41.1 24.75C41.1 25.75 41.425 26.575 42.075 27.225ZM59.9061 28.02H61.0311V32.01H58.9611V30H53.1561V32.01H51.0861V28.02H52.1061C52.6861 27.21 52.9761 26.025 52.9761 24.465V19.5H59.9061V28.02ZM54.3261 28.02H57.8361V21.435H55.0461V24.495C55.0461 26.015 54.8061 27.19 54.3261 28.02ZM67.2273 19.5C68.2373 19.5 69.0873 19.84 69.7773 20.52C70.4673 21.2 70.8123 22.035 70.8123 23.025C70.8123 24.015 70.4673 24.85 69.7773 25.53C69.0873 26.21 68.2373 26.55 67.2273 26.55H65.3823V30H63.3123V19.5H67.2273ZM67.2273 24.615C67.6673 24.615 68.0323 24.465 68.3223 24.165C68.6123 23.855 68.7573 23.475 68.7573 23.025C68.7573 22.565 68.6123 22.185 68.3223 21.885C68.0323 21.585 67.6673 21.435 67.2273 21.435H65.3823V24.615H67.2273ZM81.8217 28.635C80.7617 29.685 79.4717 30.21 77.9517 30.21C76.4317 30.21 75.1417 29.685 74.0817 28.635C73.0317 27.575 72.5067 26.28 72.5067 24.75C72.5067 23.22 73.0317 21.93 74.0817 20.88C75.1417 19.82 76.4317 19.29 77.9517 19.29C79.4717 19.29 80.7617 19.82 81.8217 20.88C82.8817 21.93 83.4117 23.22 83.4117 24.75C83.4117 26.28 82.8817 27.575 81.8217 28.635ZM75.5367 27.225C76.1867 27.865 76.9917 28.185 77.9517 28.185C78.9117 28.185 79.7167 27.865 80.3667 27.225C81.0167 26.575 81.3417 25.75 81.3417 24.75C81.3417 23.75 81.0167 22.925 80.3667 22.275C79.7167 21.625 78.9117 21.3 77.9517 21.3C76.9917 21.3 76.1867 21.625 75.5367 22.275C74.8867 22.925 74.5617 23.75 74.5617 24.75C74.5617 25.75 74.8867 26.575 75.5367 27.225ZM89.7866 23.475C90.8066 23.475 91.6416 23.78 92.2916 24.39C92.9416 24.99 93.2666 25.77 93.2666 26.73C93.2666 27.7 92.9416 28.49 92.2916 29.1C91.6416 29.7 90.8066 30 89.7866 30H85.7666V19.5H92.3666V21.48H87.8366V23.475H89.7866ZM89.7866 28.065C90.1966 28.065 90.5366 27.95 90.8066 27.72C91.0766 27.48 91.2116 27.15 91.2116 26.73C91.2116 26.31 91.0766 25.985 90.8066 25.755C90.5366 25.525 90.1966 25.41 89.7866 25.41H87.8366V28.065H89.7866ZM101.411 19.5H103.466V30H101.411V25.65H97.511V30H95.441V19.5H97.511V23.67H101.411V19.5ZM108.387 28.02H112.812V30H106.317V19.5H112.737V21.48H108.387V23.715H112.362V25.665H108.387V28.02ZM117.241 28.02H121.666V30H115.171V19.5H121.591V21.48H117.241V23.715H121.216V25.665H117.241V28.02Z" fill="white"/>
</g>
<path d="M63 52.0611L63.0227 53.6735C68.1946 53.4269 73.3649 53.1917 78.5258 52.9423L79.1077 52.9156L80.4235 53.5361C81.0231 53.8228 81.4706 54.035 81.5244 54.0551L105.893 55L112.345 53.5648L136 53.5276C135.995 53.2998 135.995 53.0781 135.997 52.8568L135.998 52.6351L135.999 52.1729L109.394 52.0012C109.387 51.9993 109.378 52.0019 109.37 52L104.222 52.2996L63 52.0611Z" fill="#A9845C"/>
<defs>
<filter id="filter0_d_114_5055" x="28.8252" y="19.29" width="94.8408" height="14.72" filterUnits="userSpaceOnUse" color-interpolation-filters="sRGB">
<feFlood flood-opacity="0" result="BackgroundImageFix"/>
<feColorMatrix in="SourceAlpha" type="matrix" values="0 0 0 0 0 0 0 0 0 0 0 0 0 0 0 0 0 0 127 0" result="hardAlpha"/>
<feOffset dx="1" dy="1"/>
<feGaussianBlur stdDeviation="0.5"/>
<feComposite in2="hardAlpha" operator="out"/>
<feColorMatrix type="matrix" values="0 0 0 0 0 0 0 0 0 0 0 0 0 0 0 0 0 0 0.25 0"/>
<feBlend mode="normal" in2="BackgroundImageFix" result="effect1_dropShadow_114_5055"/>
<feBlend mode="normal" in="SourceGraphic" in2="effect1_dropShadow_114_5055" result="shape"/>
</filter>
</defs>
</svg>
