<svg width="136" height="50" viewBox="0 0 136 50" fill="none" xmlns="http://www.w3.org/2000/svg">
<circle cx="111" cy="25" r="24.5" fill="#F3F0EE" stroke="#B1B0AF"/>
<path fill-rule="evenodd" clip-rule="evenodd" d="M98.7918 24.0099C105.353 20.8738 109.729 18.8063 111.918 17.8074C118.169 14.9553 119.468 14.4599 120.315 14.4435C120.501 14.4399 120.917 14.4906 121.187 14.7306C121.415 14.9333 121.477 15.2071 121.507 15.3993C121.537 15.5915 121.575 16.0292 121.545 16.3713C121.206 20.2756 119.74 29.7503 118.995 34.1231C118.679 35.9735 118.058 36.5939 117.457 36.6546C116.149 36.7865 115.157 35.707 113.891 34.7966C111.91 33.3721 110.791 32.4853 108.868 31.0952C106.645 29.4887 108.086 28.6058 109.352 27.1628C109.684 26.7852 115.443 21.0387 115.555 20.5175C115.568 20.4523 115.581 20.2092 115.45 20.0809C115.318 19.9526 115.124 19.9965 114.984 20.0314C114.785 20.0808 111.62 22.3755 105.489 26.9153C104.591 27.5919 103.778 27.9216 103.049 27.9044C102.245 27.8853 100.699 27.4059 99.5496 26.9961C98.14 26.4934 97.0197 26.2277 97.1173 25.374C97.1681 24.9294 97.7262 24.4747 98.7918 24.0099Z" fill="#3B3937"/>
<circle cx="68" cy="25" r="24.5" fill="#F3F0EE" stroke="#B1B0AF"/>
<path d="M69.586 13.5338C66.8166 13.1529 64.0029 13.7868 61.6645 15.3185C59.326 16.8502 57.6208 19.1763 56.8635 21.8672C56.1063 24.5582 56.3483 27.4322 57.5447 29.9587C58.7412 32.4851 60.8114 34.4933 63.373 35.6125C63.3037 34.7234 63.3673 33.829 63.5617 32.9586C63.7758 31.9875 65.0617 26.6357 65.0617 26.6357C64.8056 26.0617 64.6776 25.4389 64.6867 24.8104C64.6867 23.0917 65.6786 21.8093 66.9124 21.8093C67.134 21.8061 67.3538 21.8506 67.5567 21.9399C67.7596 22.0292 67.9409 22.1611 68.0882 22.3267C68.2356 22.4923 68.3456 22.6877 68.4107 22.8995C68.4758 23.1114 68.4945 23.3349 68.4656 23.5547C68.4656 24.5963 67.7966 26.1727 67.4471 27.6519C67.378 27.9231 67.3736 28.2069 67.4343 28.4801C67.495 28.7534 67.619 29.0086 67.7963 29.2252C67.9737 29.4417 68.1995 29.6136 68.4555 29.7269C68.7114 29.8402 68.9904 29.8918 69.27 29.8776C71.4668 29.8776 72.939 27.0639 72.939 23.7422C72.939 21.1959 71.2526 19.2884 68.1438 19.2884C67.4001 19.2595 66.6582 19.3821 65.9632 19.6487C65.2682 19.9153 64.6347 20.3203 64.1011 20.8392C63.5674 21.3582 63.1448 21.9801 62.8589 22.6674C62.573 23.3546 62.4297 24.0928 62.4378 24.8371C62.4047 25.6627 62.671 26.4724 63.1878 27.1172C63.2844 27.1892 63.3549 27.2908 63.3887 27.4064C63.4225 27.5221 63.4178 27.6456 63.3753 27.7584C63.3221 27.9713 63.1878 28.4794 63.1346 28.6658C63.1235 28.729 63.0978 28.7887 63.0594 28.8401C63.021 28.8915 62.9711 28.9332 62.9137 28.9618C62.8562 28.9904 62.7929 29.0051 62.7287 29.0048C62.6646 29.0044 62.6014 28.989 62.5443 28.9597C60.9425 28.3185 60.1878 26.5558 60.1878 24.5431C60.1878 21.2479 62.9471 17.3035 68.4679 17.3035C72.8614 17.3035 75.7827 20.5176 75.7827 23.9551C75.7827 28.4794 73.2631 31.881 69.5397 31.881C68.9832 31.8988 68.4312 31.776 67.9347 31.5239C67.4383 31.2719 67.0134 30.8987 66.6994 30.4389C66.6994 30.4389 66.0304 33.1195 65.8985 33.6264C65.6291 34.5022 65.2317 35.3334 64.7191 36.0928C65.7874 36.4169 66.8973 36.579 68.0131 36.5743C69.5334 36.5755 71.0391 36.2769 72.4438 35.6954C73.8486 35.1139 75.1248 34.261 76.1995 33.1856C77.2741 32.1101 78.1261 30.8333 78.7066 29.4281C79.2872 28.023 79.5848 26.5171 79.5825 24.9968C79.5811 22.2016 78.5684 19.5014 76.7314 17.3947C74.8944 15.2879 72.3572 13.917 69.5883 13.535L69.586 13.5338Z" fill="#3B3937"/>
<circle cx="25" cy="25" r="24.5" fill="#F3F0EE" stroke="#B1B0AF"/>
<g clip-path="url(#clip0_75_5296)">
<path d="M35.732 19.5888C35.8902 19.0954 35.732 18.75 34.9934 18.75H32.5314C31.8983 18.75 31.6169 19.0625 31.4587 19.4079C31.4587 19.4079 30.2101 22.2697 28.4339 24.1118C27.8536 24.6546 27.6074 24.8191 27.2909 24.8191C27.1326 24.8191 26.904 24.6546 26.904 24.1612V19.5888C26.904 18.9967 26.7281 18.75 26.2006 18.75H22.3318C21.9449 18.75 21.6987 19.0296 21.6987 19.2763C21.6987 19.8355 22.578 19.9671 22.6835 21.5132V24.9013C22.6835 25.6414 22.5428 25.773 22.2262 25.773C21.3997 25.773 19.3598 22.9112 18.164 19.6217C17.9178 19.0132 17.6892 18.75 17.0561 18.75H14.5941C13.8907 18.75 13.75 19.0625 13.75 19.4079C13.75 20.0164 14.5765 23.0428 17.6364 27.0395C19.6763 29.7697 22.5428 31.25 25.1454 31.25C26.7106 31.25 26.904 30.921 26.904 30.3618V28.2895C26.904 27.6316 27.0447 27.5 27.5547 27.5C27.924 27.5 28.5395 27.6645 29.9991 28.9803C31.6697 30.5428 31.9511 31.25 32.8831 31.25H35.3451C36.0485 31.25 36.4002 30.921 36.1892 30.2796C35.9606 29.6381 35.1692 28.7007 34.1141 27.5822C33.5338 26.9408 32.6721 26.2664 32.4259 25.921C32.0566 25.477 32.1621 25.2796 32.4259 24.9013C32.4259 24.8849 35.433 20.9375 35.732 19.5888Z" fill="#3B3937" stroke="#3B3937" stroke-width="0.5"/>
</g>
<defs>
<clipPath id="clip0_75_5296">
<rect width="27.5" height="27.5" fill="white" transform="translate(11.25 11.25)"/>
</clipPath>
</defs>
</svg>
